<svg id="圖層_1" data-name="圖層 1" xmlns="http://www.w3.org/2000/svg" viewBox="0 0 1104.47 409.04"><defs><style>.cls-1{font-size:15px;fill:#9fa0a0;font-family:AvenirNext-Medium, Avenir Next;}.cls-2{letter-spacing:-0.01em;}.cls-3{letter-spacing:-0.02em;}.cls-4{letter-spacing:-0.01em;}.cls-5{letter-spacing:0em;}.cls-6{fill:#f5c6c1;}.cls-7{fill:#e8bdaa;}.cls-8{fill:#d5eceb;}.cls-9{fill:#d0e4eb;}.cls-10{fill:#fff;}.cls-11{font-size:20.54px;fill:#555656;font-family:AvenirNext-DemiBold, Avenir Next;font-weight:700;}.cls-12{letter-spacing:-0.01em;}.cls-13{letter-spacing:-0.02em;}.cls-14{letter-spacing:-0.01em;}.cls-15{letter-spacing:-0.01em;}.cls-16{letter-spacing:-0.01em;}.cls-17{letter-spacing:-0.01em;}.cls-18{letter-spacing:-0.01em;}.cls-19{letter-spacing:-0.05em;}.cls-20{letter-spacing:-0.02em;}.cls-21,.cls-22,.cls-24,.cls-25{fill:none;}.cls-21,.cls-22,.cls-24,.cls-26{stroke:#898989;stroke-miterlimit:10;}.cls-21{stroke-width:3px;}.cls-22{stroke-width:3.5px;}.cls-23,.cls-26{fill:#898989;}.cls-24,.cls-26{stroke-width:2px;}</style></defs><title>process_flora</title><text class="cls-1" transform="translate(113.63 321.66) scale(1 1.1)">Subject M<tspan class="cls-2" x="68.94" y="0">a</tspan><tspan class="cls-3" x="76.92" y="0">t</tspan><tspan x="81.63" y="0">ter Expe</tspan><tspan class="cls-4" x="139.12" y="0">r</tspan><tspan class="cls-5" x="144.37" y="0">t</tspan></text><polygon class="cls-6" points="244.55 36.31 121.59 36.31 60.11 142.8 121.59 249.28 244.55 249.28 306.03 142.8 244.55 36.31"/><polygon class="cls-7" points="491.05 154.37 368.1 154.37 306.62 260.85 368.1 367.33 491.05 367.33 552.53 260.85 491.05 154.37"/><polygon class="cls-8" points="736.97 37.27 614.01 37.27 552.53 143.76 614.01 250.24 736.97 250.24 798.45 143.76 736.97 37.27"/><polygon class="cls-9" points="982.88 155 859.93 155 798.45 261.48 859.93 367.96 982.88 367.96 1044.36 261.48 982.88 155"/><polygon class="cls-10" points="226.53 67.53 139.61 67.53 96.16 142.8 139.61 218.07 226.53 218.07 269.98 142.8 226.53 67.53"/><polygon class="cls-10" points="473.03 185.58 386.12 185.58 342.66 260.85 386.12 336.12 473.03 336.12 516.49 260.85 473.03 185.58"/><polygon class="cls-10" points="718.95 68.49 632.03 68.49 588.58 143.76 632.03 219.03 718.95 219.03 762.4 143.76 718.95 68.49"/><polygon class="cls-10" points="964.86 186.21 877.95 186.21 834.49 261.48 877.95 336.75 964.86 336.75 1008.32 261.48 964.86 186.21"/><text class="cls-11" transform="translate(132.65 280.98) scale(1 1.1)">Understand</text><text class="cls-1" transform="translate(128.92 304.34) scale(1 1.1)">Lite<tspan class="cls-12" x="25.08" y="0">r</tspan><tspan class="cls-2" x="30.31" y="0">a</tspan><tspan class="cls-5" x="38.29" y="0">tu</tspan><tspan class="cls-13" x="51.96" y="0">r</tspan><tspan x="57.12" y="0">e </tspan><tspan class="cls-14" x="69.46" y="0">R</tspan><tspan x="78.49" y="0">eview</tspan></text><text class="cls-11" transform="translate(371.11 120.32) scale(1 1.1)"><tspan class="cls-15">C</tspan><tspan x="14.05" y="0">ompetitive</tspan><tspan x="19.71" y="21.78">Analysis</tspan></text><text class="cls-11" transform="translate(626.05 281.94) scale(1 1.1)">Id<tspan class="cls-16" x="18.81" y="0">e</tspan><tspan class="cls-17" x="30.48" y="0">a</tspan><tspan x="41.57" y="0">tion &amp;</tspan><tspan x="-17.59" y="21.78">B</tspan><tspan class="cls-18" x="-4.3" y="21.78">r</tspan><tspan x="2.91" y="21.78">ainstorming</tspan></text><text class="cls-11" transform="translate(865.56 142.33) scale(1 1.1)"><tspan class="cls-19">P</tspan><tspan class="cls-20" x="11.58" y="0">r</tspan><tspan x="18.69" y="0">ototyping</tspan></text><path class="cls-21" d="M210.14,118.7s28.08-4.88,26.72,23c-1.22,24.78-24.3,18.7-24.3,18.7"/><path class="cls-21" d="M220.34,118.83s-1-15.28-19.44-12.36c0,0-4.85-10.45-15.54-8.51S172.24,104,172.24,104"/><path class="cls-21" d="M179,113.51s-3.16-9.47-9.23-10-11.42-.73-15.3,6.8c0,0-9.23-.73-14.34,7.05s-3.4,11.9-3.4,11.9-11.17,2.67-6.31,17.49,21.62,4.37,21.62,4.37"/><path class="cls-21" d="M212.56,153.35s2.8,13.55-9.47,15.55c-13.93,2.27-17-1.22-20.52-11.42"/><path class="cls-21" d="M138,154.46s-2,7.15,2.41,12.74A16.15,16.15,0,0,0,151.59,173s-.24,10.93,1,12.87,6.56,3.89,9-1.7,4.86-10.69,5.83-10.93,13.68,6.28,21.78-6.09"/><path class="cls-21" d="M185.6,115.94s-8.5-6.07-14.57,2.43c0,0-13.37-8.75-14.09,8.5"/><path class="cls-21" d="M168.84,150.19s-1.22-18.43-18.46-9.82"/><path class="cls-21" d="M225.2,138.08s-3.65-10.72-13.36-8.05a13.72,13.72,0,0,0-10.45,11.42s-10.37-3.4-12.23,7"/><path class="cls-22" d="M398.32,284V257.56a1.1,1.1,0,0,1,1.14-1.05h60.23a1.1,1.1,0,0,1,1.14,1.05V284"/><path class="cls-22" d="M443.63,307.27V284.92a1,1,0,0,1,1.09-.92h32.21a1,1,0,0,1,1.1.92v22.35"/><polygon class="cls-23" points="429.57 214.43 434.5 224.42 445.52 226.02 437.55 233.79 439.43 244.77 429.57 239.59 419.72 244.77 421.6 233.79 413.63 226.02 424.65 224.42 429.57 214.43"/><line class="cls-22" x1="429.57" y1="256.51" x2="429.57" y2="246.12"/><path class="cls-22" d="M381.12,307.27V284.92a1,1,0,0,1,1.1-.92h32.21a1,1,0,0,1,1.09.92v22.35"/><rect class="cls-24" x="664.82" y="173.34" width="21.29" height="10.6"/><path class="cls-24" d="M687.76,185.22H663.17V172.05h24.59Zm-21.29-2.56h18v-8h-18Z"/><ellipse class="cls-24" cx="675.71" cy="142.33" rx="28.89" ry="30.59"/><path class="cls-24" d="M675.71,174.57c-16.84,0-30.54-14.46-30.54-32.24s13.7-32.23,30.54-32.23,30.54,14.46,30.54,32.23S692.55,174.57,675.71,174.57Zm0-61.18c-15,0-27.24,13-27.24,28.94s12.22,28.94,27.24,28.94,27.24-13,27.24-28.94S690.73,113.39,675.71,113.39Z"/><rect class="cls-25" x="667.84" y="162.17" width="15.55" height="12.29" rx="1.12" ry="1.12"/><path class="cls-23" d="M683.06,204.82H668.81V199h-5v-15.7h23.29v15.62h-4Zm-12.25-2h10.25v-5.91h4V185.29H665.8V197h5Z"/><path class="cls-23" d="M683.82,206.47H668.05a.87.87,0,0,1-.88-.88v-4.94H663a.89.89,0,0,1-.89-.89V182.52a.87.87,0,0,1,.88-.88h24.82a.87.87,0,0,1,.88.88v17.15a.88.88,0,0,1-.88.89h-3.14v5A.87.87,0,0,1,683.82,206.47Zm-19.66-22.83v15l4.13,0a.88.88,0,0,1,.89.88v4.94h13.54v-5a.88.88,0,0,1,.88-.88h3.14V183.65Zm16.36,19.54h-9.17a.89.89,0,0,1-.89-.89v-4.94h-3c-2.54,0-2-.9-2-2v-9.51a.87.87,0,0,1,.88-.88h18.22a.88.88,0,0,1,.89.88v10.56a.89.89,0,0,1-.89.88h-3.13l0,5A.89.89,0,0,1,680.52,203.18Zm-13.06-16.24v8.39l4.12,0a.88.88,0,0,1,.89.88v5h6.93v-5a.89.89,0,0,1,.89-.89h3.13v-8.32Z"/><path class="cls-24" d="M677.93,120.47s-18-.38-20,17.63"/><path class="cls-24" d="M658.46,138.15l-.92-.1a1.19,1.19,0,0,1-1-1.38c2.36-15.21,15.86-17.46,20.16-17.79a1.2,1.2,0,0,1,1.28,1.21l-.05,2,0-1.64V121a1.18,1.18,0,0,1-1.1,1.16c-3.61.23-15,2-17.05,15A1.21,1.21,0,0,1,658.46,138.15Z"/><rect class="cls-26" x="638.88" y="170.4" width="10.26" height="3.31" rx="0.97" ry="0.97" transform="translate(99.8 557) rotate(-50.23)"/><rect class="cls-26" x="701.64" y="170.4" width="10.26" height="3.31" rx="0.97" ry="0.97" transform="translate(1026.63 825.36) rotate(-129.77)"/><rect class="cls-26" x="627.61" y="138.16" width="10.26" height="3.31" rx="0.97" ry="0.97"/><rect class="cls-26" x="638.52" y="105.92" width="10.26" height="3.31" rx="0.97" ry="0.97" transform="translate(264.59 -423.62) rotate(45)"/><rect class="cls-26" x="702.4" y="106.76" width="10.26" height="3.31" rx="0.97" ry="0.97" transform="translate(1284.49 -315.21) rotate(135)"/><rect class="cls-26" x="670.58" y="93.99" width="10.26" height="3.31" rx="0.97" ry="0.97" transform="translate(771.36 -580.06) rotate(90)"/><rect class="cls-26" x="713.12" y="138.95" width="10.26" height="3.31" rx="0.97" ry="0.97"/><rect class="cls-21" x="869.21" y="222.1" width="104.4" height="78.75" rx="1.49" ry="1.49"/><line class="cls-21" x1="869.21" y1="238.78" x2="973.6" y2="238.51"/><circle class="cls-23" cx="878.6" cy="230.45" r="2.13"/><rect class="cls-23" x="884.41" y="228.72" width="22.57" height="3.45" rx="1.01" ry="1.01"/><rect class="cls-21" x="877.99" y="247.77" width="87.15" height="9.17" rx="1" ry="1"/><rect class="cls-21" x="877.72" y="264.68" width="29.79" height="26.82" rx="1" ry="1"/><line class="cls-21" x1="878.48" y1="265.37" x2="906.9" y2="290.81"/><line class="cls-21" x1="906.9" y1="265.37" x2="878.48" y2="290.81"/><rect class="cls-21" x="916.3" y="264.68" width="48.84" height="26.82" rx="1" ry="1"/></svg>